<svg width="43" height="44" viewBox="0 0 43 44" fill="none" xmlns="http://www.w3.org/2000/svg">
<path d="M18.2118 21.323C22.5974 21.323 22.5974 27.1896 18.2118 27.1896C15.7379 27.1896 12.8516 27.1896 12.8516 27.1896V21.323M18.2118 21.323C15.7379 21.323 12.8516 21.323 12.8516 21.323M18.2118 21.323C22.5974 21.323 22.5974 15.9453 18.2118 15.9453C16.2626 15.9453 12.8516 15.9453 12.8516 15.9453V21.323" stroke="white" stroke-width="1.5" stroke-linecap="round" stroke-linejoin="round"/>
<path d="M26.6863 19.4062C24.7756 19.4062 23.2266 21.1488 23.2266 23.2985H30.1461C30.1461 21.1488 28.5971 19.4062 26.6863 19.4062Z" stroke="white" stroke-width="1.5" stroke-linecap="round" stroke-linejoin="round"/>
<path d="M23.2266 23.2969C23.2266 25.4465 24.7756 27.1891 26.6863 27.1891C29.0694 27.1891 29.7136 25.4592 29.7136 25.4592" stroke="white" stroke-width="1.5" stroke-linecap="round" stroke-linejoin="round"/>
<path d="M28.8482 16.8105H24.5234" stroke="white" stroke-width="1.5" stroke-linecap="round" stroke-linejoin="round"/>
<circle cx="21.5" cy="22" r="20.5" stroke="white" stroke-width="2"/>
</svg>
