<svg width="50" height="49" viewBox="0 0 50 49" fill="none" xmlns="http://www.w3.org/2000/svg">
<path d="M4.58594 10.2083C4.58594 9.12537 5.01614 8.08675 5.78192 7.32098C6.54769 6.55521 7.5863 6.125 8.66927 6.125H41.3359C42.4189 6.125 43.4575 6.55521 44.2233 7.32098C44.9891 8.08675 45.4193 9.12537 45.4193 10.2083V32.6667C45.4193 33.7496 44.9891 34.7882 44.2233 35.554C43.4575 36.3198 42.4189 36.75 41.3359 36.75H27.0443V40.8333H33.1693C33.7108 40.8333 34.2301 41.0484 34.6129 41.4313C34.9958 41.8142 35.2109 42.3335 35.2109 42.875C35.2109 43.4165 34.9958 43.9358 34.6129 44.3187C34.2301 44.7016 33.7108 44.9167 33.1693 44.9167H16.8359C16.2945 44.9167 15.7751 44.7016 15.3923 44.3187C15.0094 43.9358 14.7943 43.4165 14.7943 42.875C14.7943 42.3335 15.0094 41.8142 15.3923 41.4313C15.7751 41.0484 16.2945 40.8333 16.8359 40.8333H22.9609V36.75H8.66927C7.5863 36.75 6.54769 36.3198 5.78192 35.554C5.01614 34.7882 4.58594 33.7496 4.58594 32.6667V10.2083ZM41.3359 32.6667V10.2083H8.66927V32.6667H41.3359Z" fill="white"/>
</svg>
