<svg width="43" height="44" viewBox="0 0 43 44" fill="none" xmlns="http://www.w3.org/2000/svg">
<path d="M24.9603 29.9314V27.449C24.9927 27.0366 24.937 26.622 24.7968 26.2327C24.6566 25.8435 24.4352 25.4885 24.1472 25.1915C26.8632 24.8888 29.7175 23.8595 29.7175 19.1369C29.7172 17.9293 29.2527 16.768 28.4201 15.8934C28.8143 14.8369 28.7865 13.6691 28.3422 12.6325C28.3422 12.6325 27.3216 12.3298 24.9603 13.9127C22.9778 13.3754 20.8881 13.3754 18.9057 13.9127C16.5444 12.3298 15.5238 12.6325 15.5238 12.6325C15.0795 13.6691 15.0516 14.8369 15.4459 15.8934C14.607 16.7745 14.142 17.9463 14.1485 19.1629C14.1485 23.8509 17.0028 24.8801 19.7187 25.2175C19.4342 25.5116 19.2147 25.8622 19.0746 26.2467C18.9345 26.6311 18.877 27.0409 18.9057 27.449V29.9314" stroke="white" stroke-width="1.5" stroke-linecap="round" stroke-linejoin="round"/>
<path d="M18.9062 28.2022C16.3113 29.044 14.149 28.2022 12.8516 25.6074" stroke="white" stroke-width="1.5" stroke-linecap="round" stroke-linejoin="round"/>
<circle cx="21.5" cy="22" r="20.5" stroke="white" stroke-width="2"/>
</svg>
