<svg width="31" height="30" viewBox="0 0 31 30" fill="none" xmlns="http://www.w3.org/2000/svg">
<g clip-path="url(#clip0_3132_402)">
<path d="M19.1177 4.29043C16.6729 3.72235 14.1305 3.72235 11.6857 4.29043C10.2737 3.42443 9.19569 3.02643 8.41169 2.85843C8.07707 2.78291 7.73468 2.74733 7.39169 2.75243C7.23562 2.75666 7.08028 2.77541 6.92769 2.80843L6.90769 2.81243L6.89969 2.81643H6.89369L7.16769 3.77843L6.89369 2.81843C6.75318 2.85814 6.62307 2.92813 6.51251 3.0235C6.40194 3.11886 6.3136 3.23728 6.25369 3.37043C5.66363 4.69185 5.55122 6.17727 5.93569 7.57243C4.93996 8.77915 4.39734 10.2959 4.40169 11.8604C4.40169 14.9664 5.31769 17.0544 6.87969 18.3964C7.97369 19.3364 9.30169 19.8364 10.6337 20.1224C10.4241 20.738 10.3451 21.3906 10.4017 22.0384V23.2344C9.58769 23.4044 9.02369 23.3504 8.62169 23.2184C8.11969 23.0524 7.73369 22.7184 7.36369 22.2384C7.17027 21.9797 6.99004 21.7114 6.82369 21.4344L6.70969 21.2484C6.56574 21.0091 6.41637 20.773 6.26169 20.5404C5.88169 19.9784 5.31769 19.2744 4.40569 19.0344L3.43769 18.7804L2.92969 20.7164L3.89769 20.9704C4.05769 21.0104 4.26569 21.1604 4.60769 21.6624C4.73932 21.8606 4.86603 22.062 4.98769 22.2664L5.12369 22.4864C5.31169 22.7904 5.52769 23.1264 5.77769 23.4544C6.28369 24.1144 6.97369 24.7804 7.99769 25.1184C8.69769 25.3504 9.49369 25.4064 10.4017 25.2664V29.0004C10.4017 29.2657 10.507 29.52 10.6946 29.7075C10.8821 29.8951 11.1365 30.0004 11.4017 30.0004H19.4017C19.6669 30.0004 19.9213 29.8951 20.1088 29.7075C20.2963 29.52 20.4017 29.2657 20.4017 29.0004V21.8764C20.4017 21.2444 20.3737 20.6664 20.1957 20.1284C21.5217 19.8484 22.8397 19.3484 23.9277 18.4084C25.4877 17.0564 26.4017 14.9484 26.4017 11.8244V11.8224C26.3967 10.2708 25.8538 8.76881 24.8657 7.57243C25.2497 6.17789 25.1373 4.69326 24.5477 3.37243C24.4882 3.23912 24.4003 3.12044 24.2901 3.02474C24.1799 2.92903 24.05 2.85861 23.9097 2.81843L23.6357 3.77843C23.9097 2.81843 23.9077 2.81843 23.9057 2.81843L23.9017 2.81643L23.8937 2.81243L23.8757 2.80843C23.8263 2.79559 23.7762 2.78557 23.7257 2.77843C23.621 2.76315 23.5155 2.75446 23.4097 2.75243C23.0667 2.74737 22.7243 2.78295 22.3897 2.85843C21.6077 3.02643 20.5297 3.42443 19.1177 4.29043Z" fill="#E7E7E7"/>
</g>
<defs>
<clipPath id="clip0_3132_402">
<rect width="30" height="30" fill="white" transform="translate(0.398438)"/>
</clipPath>
</defs>
</svg>
