<svg width="40" height="40" viewBox="0 0 40 40" fill="none" xmlns="http://www.w3.org/2000/svg">
<path d="M7.37906 34.0013L4.57031 2.5H35.4328L32.6203 33.9963L19.9828 37.5L7.37906 34.0013Z" fill="#2F2725"/>
<path d="M20 34.8224L30.2125 31.9912L32.615 5.07617H20V34.8224Z" fill="#4C4C4C"/>
<path d="M20 16.7595H14.8875L14.535 12.8032H20V8.93945H10.3125L10.405 9.97695L11.3538 20.6232H20V16.7595ZM20 26.7932L19.9825 26.7982L15.68 25.637L15.405 22.5557H11.5262L12.0675 28.6207L19.9825 30.8182L20 30.8132V26.7932Z" fill="#EBEBEB"/>
<path d="M19.9844 16.7595V20.6232H24.7419L24.2944 25.6345L19.9844 26.797V30.817L27.9056 28.6207L27.9631 27.9682L28.8706 17.797L28.9656 16.7595H27.9244H19.9844ZM19.9844 8.93945V12.8032H29.3169L29.3944 11.9357L29.5706 9.97695L29.6631 8.93945H19.9844Z" fill="white"/>
</svg>
