<svg width="49" height="49" viewBox="0 0 49 49" fill="none" xmlns="http://www.w3.org/2000/svg">
<path d="M45.5554 19.271C45.5561 18.919 45.4871 18.5703 45.3524 18.2451C45.2177 17.9199 45.02 17.6245 44.7707 17.3761L31.623 4.23027C31.3741 3.98141 31.0787 3.784 30.7536 3.64932C30.4285 3.51463 30.08 3.44531 29.7281 3.44531C29.3761 3.44531 29.0277 3.51463 28.7025 3.64932C28.3774 3.784 28.082 3.98141 27.8331 4.23027L22.334 9.72937L11.1444 13.9269C10.7041 14.0917 10.3149 14.3695 10.0158 14.7324C9.71682 15.0952 9.51854 15.5304 9.44091 15.9941L4.99263 42.6838C4.96478 42.8485 4.97321 43.0174 5.01734 43.1785C5.06146 43.3396 5.14022 43.4892 5.24811 43.6168C5.356 43.7444 5.49042 43.8469 5.642 43.9171C5.79359 43.9874 5.95867 44.0237 6.12575 44.0236C6.18985 44.0234 6.25383 44.0183 6.31716 44.0083L33.0068 39.56C33.4709 39.4827 33.9065 39.2846 34.2697 38.9855C34.6329 38.6865 34.911 38.2971 35.0759 37.8565L39.2716 26.6669L44.7726 21.1659C45.0217 20.9174 45.2192 20.622 45.3536 20.2968C45.4879 19.9715 45.5566 19.6229 45.5554 19.271ZM32.9226 37.0507C32.8991 37.1135 32.8595 37.169 32.8077 37.2116C32.756 37.2543 32.694 37.2826 32.6279 37.2938L9.47345 41.1525L19.5931 31.031C20.6313 31.6713 21.8686 31.9081 23.0698 31.6963C24.2711 31.4844 25.3528 30.8388 26.1093 29.8819C26.8659 28.9251 27.2447 27.7237 27.1738 26.5059C27.1028 25.2882 26.5871 24.1389 25.7246 23.2764C24.8621 22.4138 23.7128 21.8981 22.495 21.8272C21.2773 21.7562 20.0759 22.135 19.119 22.8916C18.1622 23.6482 17.5165 24.7298 17.3047 25.9311C17.0929 27.1324 17.3296 28.3696 17.97 29.4079L7.84841 39.5313L11.7091 16.3712C11.7204 16.3056 11.7485 16.2441 11.7908 16.1928C11.8331 16.1414 11.8881 16.102 11.9502 16.0783L22.6805 12.0588L36.9422 26.3205L32.9226 37.0507ZM19.5242 26.7971C19.5242 26.2671 19.6813 25.749 19.9758 25.3083C20.2702 24.8676 20.6888 24.5242 21.1784 24.3214C21.6681 24.1185 22.2068 24.0655 22.7267 24.1689C23.2465 24.2723 23.7239 24.5275 24.0987 24.9022C24.4735 25.277 24.7287 25.7545 24.8321 26.2743C24.9355 26.7941 24.8824 27.3329 24.6796 27.8225C24.4768 28.3122 24.1333 28.7307 23.6926 29.0252C23.252 29.3196 22.7339 29.4768 22.2039 29.4768C21.4932 29.4768 20.8116 29.1944 20.309 28.6919C19.8065 28.1894 19.5242 27.5078 19.5242 26.7971ZM43.1456 19.5428L38.282 24.4064L24.5926 10.7189L29.4582 5.8534C29.4937 5.8178 29.5359 5.78957 29.5824 5.7703C29.6289 5.75104 29.6787 5.74112 29.729 5.74112C29.7793 5.74112 29.8291 5.75104 29.8756 5.7703C29.9221 5.78957 29.9643 5.8178 29.9999 5.8534L43.1456 19.0011C43.1812 19.0366 43.2095 19.0789 43.2287 19.1253C43.248 19.1718 43.2579 19.2216 43.2579 19.2719C43.2579 19.3222 43.248 19.3721 43.2287 19.4185C43.2095 19.465 43.1812 19.5072 43.1456 19.5428Z" fill="white"/>
</svg>
