<svg width="31" height="30" viewBox="0 0 31 30" fill="none" xmlns="http://www.w3.org/2000/svg">
<g clip-path="url(#clip0_3132_294)">
<path fill-rule="evenodd" clip-rule="evenodd" d="M12.2136 16.4226H15.8729C15.2429 14.2801 14.6226 12.2994 14.0122 10.2863C13.4199 12.3065 12.819 14.2801 12.2136 16.4226ZM30.3437 0.234375H1.48127C0.960869 0.234375 1.03538 0.347693 1.03538 0.849766V29.7491C1.03538 30.2507 0.96087 30.2302 1.44461 30.2302H30.3804C30.8639 30.2302 31.0312 30.2507 31.0312 29.7489V0.886428C31.0312 0.347693 30.8641 0.234375 30.3437 0.234375ZM19.1991 22.8503C18.8094 22.8503 18.4182 22.8186 18.0304 22.8465C17.7507 22.8674 17.6571 22.7498 17.5826 22.507C17.2222 21.3331 16.8392 20.1597 16.4785 18.9861C16.4059 18.7499 16.3021 18.6637 16.0462 18.6668C14.7314 18.6821 13.4158 18.6806 12.1008 18.6652C11.8239 18.6618 11.6965 18.7356 11.6175 19.0104C11.2828 20.1778 10.9166 21.3358 10.5784 22.502C10.505 22.7548 10.3936 22.8432 10.1251 22.8363C9.33519 22.8165 8.54411 22.8286 7.67923 22.8286C7.90753 22.1037 8.11465 21.4334 8.3289 20.7658C9.64158 16.6712 10.9588 12.5765 12.2619 8.47919C12.3529 8.19399 12.4793 8.10615 12.7721 8.11258C13.6972 8.13305 14.623 8.11781 15.5486 8.11258C15.7217 8.11138 15.8398 8.12162 15.9031 8.31826C17.4517 13.1071 19.0058 17.9255 20.5584 22.7139C20.5651 22.7356 20.5608 22.8503 20.5644 22.8503H19.1991ZM24.1274 22.8503H21.2707V12.1375H24.1274V22.8503ZM22.6157 10.6922C21.7432 10.691 21.1186 10.0904 21.1126 9.24718C21.1069 8.40634 21.7571 7.78095 22.6376 7.78C23.5251 7.77905 24.1505 8.38397 24.1574 9.24909C24.1636 10.093 23.5225 10.6936 22.6157 10.6922Z" fill="#E7E7E7"/>
</g>
<defs>
<clipPath id="clip0_3132_294">
<rect width="30" height="30" fill="white" transform="translate(0.796875)"/>
</clipPath>
</defs>
</svg>
