<svg width="41" height="40" viewBox="0 0 41 40" fill="none" xmlns="http://www.w3.org/2000/svg">
<g clip-path="url(#clip0_3132_285)">
<path d="M0.601562 0H40.6016V40H0.601562V0Z" fill="#2A2A2A"/>
<path d="M11.1173 33.4264L14.1783 31.5739C14.7689 32.6209 15.3061 33.5069 16.5947 33.5069C17.8298 33.5069 18.6088 33.0237 18.6088 31.1444V18.3634H22.3677V31.1975C22.3677 35.0908 20.0855 36.863 16.7558 36.863C13.7488 36.863 12.0033 35.3056 11.1172 33.4261M24.4094 33.0236L27.47 31.2516C28.2758 32.5673 29.323 33.5339 31.1755 33.5339C32.7331 33.5339 33.7262 32.7552 33.7262 31.6811C33.7262 30.3923 32.7059 29.9358 30.9875 29.1842L30.048 28.7811C27.3359 27.6269 25.537 26.1769 25.537 23.1159C25.537 20.2966 27.685 18.1484 31.0414 18.1484C33.4311 18.1484 35.1495 18.9809 36.3845 21.1558L33.4577 23.0355C32.8131 21.8809 32.1153 21.4245 31.0413 21.4245C29.9403 21.4245 29.2422 22.1227 29.2422 23.0355C29.2422 24.1631 29.9403 24.6198 31.5513 25.318L32.4909 25.7206C35.6862 27.0902 37.4852 28.4863 37.4852 31.6275C37.4852 35.0109 34.827 36.8634 31.2559 36.8634C27.7655 36.8634 25.51 35.1987 24.4092 33.0237" fill="#E7E7E7"/>
</g>
<defs>
<clipPath id="clip0_3132_285">
<rect width="40" height="40" fill="white" transform="translate(0.601562)"/>
</clipPath>
</defs>
</svg>
