<svg width="49" height="49" viewBox="0 0 49 49" fill="none" xmlns="http://www.w3.org/2000/svg">
<g clip-path="url(#clip0_3132_382)">
<path d="M47.4585 43.8412L40.8299 37.2534V11.9096L37.6993 6.15206C37.4684 5.7131 37.1219 5.34557 36.6973 5.08918C36.2727 4.83279 35.7862 4.69728 35.2902 4.69728C34.7942 4.69728 34.3076 4.83279 33.883 5.08918C33.4584 5.34557 33.1119 5.7131 32.881 6.15206L29.941 11.9232V26.419L5.04627 1.64678C4.85589 1.45482 4.61266 1.32391 4.34759 1.27073C4.08252 1.21755 3.80761 1.24452 3.55792 1.34819C3.30824 1.45186 3.09508 1.62754 2.94563 1.85283C2.79617 2.07812 2.7172 2.34282 2.71877 2.61317V13.6109H5.67238V15.7887H2.71877V24.4998H5.67238V26.6776H2.71877V35.729H5.67238V37.9068H2.71877V44.8076C2.71877 45.1686 2.86218 45.5148 3.11743 45.7701C3.37269 46.0253 3.7189 46.1687 4.07988 46.1687H46.4921C46.7625 46.1703 47.0271 46.0913 47.2524 45.9419C47.4777 45.7924 47.6534 45.5793 47.7571 45.3296C47.8608 45.0799 47.8877 44.805 47.8345 44.5399C47.7814 44.2748 47.6504 44.0316 47.4585 43.8412ZM13.6077 35.3887V23.0571L25.9529 35.3887H13.6077ZM38.1077 38.2607H32.6632V34.9532H38.1077V38.2607ZM38.1077 32.8162H32.6632V12.5901L35.3038 7.45872L38.1077 12.6037V32.8162Z" fill="white"/>
</g>
<defs>
<clipPath id="clip0_3132_382">
<rect width="49" height="49" fill="white"/>
</clipPath>
</defs>
</svg>
